<svg xmlns="http://www.w3.org/2000/svg" viewBox="0 0 32 32">
  <path d="M25.6 17.5c0-1.3-.5-2-1.6-2.1.5-.7.5-1.5.1-2.3-.5-.9-1.5-1.2-2.5-.9.1-.9-.2-1.7-.9-2.2-.8-.6-1.8-.6-2.6-.1-.3-.9-.9-1.5-1.8-1.7-1-.2-1.9.1-2.5.9-.6-.6-1.4-.9-2.2-.7-1 .2-1.6.9-1.8 1.8-.8-.3-1.7-.1-2.3.5-.7.7-.8 1.6-.5 2.5-.9 0-1.6.4-2 1.2-.4.8-.2 1.7.3 2.4-.8.4-1.2 1.1-1.1 2 .1.9.7 1.5 1.4 1.8-.4.8-.4 1.6.2 2.3.6.7 1.4 1 2.3.8.1.9.6 1.6 1.4 1.9.9.4 1.8.2 2.5-.4.4.7 1.1 1.2 2 1.2.9 0 1.6-.4 2-1.1.7.6 1.5.8 2.4.5.8-.3 1.4-1 1.5-1.9.8.2 1.6 0 2.2-.6.6-.7.8-1.5.5-2.4.8-.2 1.4-.8 1.5-1.7.1-.6-.1-1.2-.5-1.6z" fill="#EE0000"/>
  <path d="M16 10.5c-3.6 0-6.5 2.9-6.5 6.5s2.9 6.5 6.5 6.5 6.5-2.9 6.5-6.5-2.9-6.5-6.5-6.5z" fill="#EE0000"/>
  <text x="16" y="21" text-anchor="middle" font-family="Arial,sans-serif" font-size="11" font-weight="bold" fill="white">RH</text>
</svg>
